<?xml version="1.0" standalone="no"?>
<!DOCTYPE svg PUBLIC "-//W3C//DTD SVG 20010904//EN"
 "http://www.w3.org/TR/2001/REC-SVG-20010904/DTD/svg10.dtd">
<svg version="1.0" xmlns="http://www.w3.org/2000/svg"
 width="512.000000pt" height="512.000000pt" viewBox="0 0 512.000000 512.000000"
 preserveAspectRatio="xMidYMid meet">

<g transform="translate(0.000000,512.000000) scale(0.100000,-0.100000)"
fill="#000000" stroke="none">
<path d="M2360 5000 c-466 -36 -959 -231 -1325 -525 -451 -361 -770 -938 -857
-1550 -19 -135 -16 -475 6 -615 62 -399 226 -793 464 -1114 83 -112 278 -312
387 -398 353 -278 771 -455 1205 -514 141 -18 439 -18 587 1 335 44 727 189
1013 375 540 352 918 940 1031 1605 29 172 36 450 15 628 -40 348 -150 660
-344 980 -216 357 -451 590 -806 800 -409 242 -917 363 -1376 327z m1302
-1459 c15 -17 30 -46 34 -65 4 -26 -44 -274 -191 -963 -108 -510 -203 -954
-212 -986 -29 -105 -87 -140 -174 -103 -19 8 -167 113 -329 234 l-295 219
-153 -146 c-147 -141 -198 -180 -234 -181 -22 0 -23 -14 2 320 l21 275 57 55
c32 30 284 261 560 514 277 252 501 464 499 470 -13 37 -75 2 -754 -425 l-691
-436 -289 89 c-158 49 -305 93 -326 99 -51 14 -74 49 -57 89 7 16 26 39 44 49
17 11 202 86 411 166 397 154 762 295 1525 590 499 193 500 193 552 136z"/>
</g>
</svg>
